<?xml version="1.0" encoding="UTF-8" standalone="no"?>
<svg
   version="1.1"
   width="100"
   height="100"
   id="svg3"
   sodipodi:docname="set_filled_judaism_2d.svg"
   inkscape:version="1.4 (e7c3feb, 2024-10-09)"
   xmlns:inkscape="http://www.inkscape.org/namespaces/inkscape"
   xmlns:sodipodi="http://sodipodi.sourceforge.net/DTD/sodipodi-0.dtd"
   xmlns="http://www.w3.org/2000/svg"
   xmlns:svg="http://www.w3.org/2000/svg">
  <defs
     id="defs3" />
  <sodipodi:namedview
     id="namedview3"
     pagecolor="#ffffff"
     bordercolor="#000000"
     borderopacity="0.25"
     inkscape:showpageshadow="2"
     inkscape:pageopacity="0.0"
     inkscape:pagecheckerboard="0"
     inkscape:deskcolor="#d1d1d1"
     inkscape:zoom="5.22"
     inkscape:cx="50.095785"
     inkscape:cy="55.651341"
     inkscape:window-width="1920"
     inkscape:window-height="1011"
     inkscape:window-x="0"
     inkscape:window-y="0"
     inkscape:window-maximized="1"
     inkscape:current-layer="strokes"
     showgrid="false" />
  <g
     id="ViewLayer_LineSet"
     inkscape:label="ViewLayer_LineSet">
    <g
       inkscape:groupmode="layer"
       id="strokes"
       inkscape:label="strokes">
      <path
         fill="none"
         stroke-width="3"
         stroke-linecap="butt"
         stroke-opacity="1"
         stroke="#000000"
         stroke-linejoin="round"
         d="M 36.847,27.615 30.429041,39.199422 43.752,39.192 h 10 2.496 10 3.809 L 64.935,30.603 63.153,27.615 58.031,19.026 56.248,16.037 51.127,7.448 50,5.559 44.878,14.148 43.752,16.037 38.63,24.626 36.847,27.615 30.429041,39.199422 43.752,39.192"
         id="path2"
         style="stroke-linecap:square;stroke-linejoin:miter;fill:#000000;stroke:#000000"
         sodipodi:nodetypes="ccccccccccccccccccc" />
      <path
         fill="none"
         stroke-width="3"
         stroke-linecap="butt"
         stroke-opacity="1"
         stroke="#000000"
         stroke-linejoin="round"
         d="m 36.847,27.615 -6.41205,-11.578 13.31705,0 h 10 2.496 10 3.809 l -5.122,8.589 -1.782,2.989 -5.122,8.588 -1.783,2.989 -5.121,8.589 L 50,49.67 44.878,41.081 43.752,39.192 38.63,30.603 36.847,27.615 30.43495,16.037 l 3.935599,0"
         id="path3"
         style="stroke-linecap:square;stroke-linejoin:miter;stroke:#000000;fill:#000000"
         sodipodi:nodetypes="ccccccccccccccccccc" />
      <path
         fill="none"
         stroke-width="3"
         stroke-linecap="butt"
         stroke-opacity="1"
         stroke="#000000"
         stroke-linejoin="round"
         d="M 52.638,55.911 50,55.734 l -2.638,0.177 -2.53,0.517 -2.399,0.834 -2.246,1.127 -2.068,1.397 -1.867,1.644 -1.644,1.867 -1.397,2.068 -1.127,2.246 -0.834,2.399 -0.517,2.53 -0.177,2.638 0.177,2.638 0.517,2.53 0.834,2.399 1.127,2.246 1.397,2.068 1.644,1.867 1.867,1.644 2.068,1.397 2.246,1.127 2.399,0.834 2.53,0.517 2.638,0.178 2.638,-0.178 2.53,-0.517 2.399,-0.834 2.246,-1.127 2.068,-1.397 1.867,-1.644 1.644,-1.867 1.397,-2.068 1.127,-2.246 0.834,-2.399 0.517,-2.53 0.177,-2.638 -0.177,-2.638 -0.517,-2.53 -0.834,-2.399 -1.127,-2.246 -1.397,-2.068 -1.644,-1.867 -1.867,-1.644 -2.068,-1.397 -2.246,-1.127 -2.399,-0.834 -2.53,-0.517"
         id="path2-7"
         style="fill:#000000;stroke:#000000;stroke-linecap:round" />
    </g>
  </g>
</svg>
