<?xml version="1.0" encoding="UTF-8" standalone="no"?>
<svg
   version="1.1"
   width="100"
   height="100"
   id="svg3"
   sodipodi:docname="necropolis_cut_rock_graves_fill_black.svg"
   inkscape:version="1.4 (e7c3feb, 2024-10-09)"
   xmlns:inkscape="http://www.inkscape.org/namespaces/inkscape"
   xmlns:sodipodi="http://sodipodi.sourceforge.net/DTD/sodipodi-0.dtd"
   xmlns="http://www.w3.org/2000/svg"
   xmlns:svg="http://www.w3.org/2000/svg">
  <defs
     id="defs3" />
  <sodipodi:namedview
     id="namedview3"
     pagecolor="#ffffff"
     bordercolor="#000000"
     borderopacity="0.25"
     inkscape:showpageshadow="2"
     inkscape:pageopacity="0.0"
     inkscape:pagecheckerboard="0"
     inkscape:deskcolor="#d1d1d1"
     inkscape:zoom="5.939697"
     inkscape:cx="49.581654"
     inkscape:cy="57.662874"
     inkscape:window-width="1920"
     inkscape:window-height="1011"
     inkscape:window-x="0"
     inkscape:window-y="0"
     inkscape:window-maximized="1"
     inkscape:current-layer="strokes"
     showgrid="false" />
  <g
     id="ViewLayer_LineSet"
     inkscape:label="ViewLayer_LineSet">
    <g
       inkscape:groupmode="layer"
       id="strokes"
       inkscape:label="strokes">
      <path
         fill="none"
         stroke-width="3"
         stroke-linecap="butt"
         stroke-opacity="1"
         stroke="#000000"
         stroke-linejoin="round"
         d="m 52.621,94.188 h 1.324 l 0.971,-9.953 0.971,-9.953 0.971,-9.952 0.972,-9.953 0.419,-4.291 -1.867,-2.023 h -2.897 l -0.025,-5.52 -1.18,-2.779 -2.304,-1.094 -2.305,1.094 -1.18,2.779 -0.025,5.52 h -2.897 l -1.866,2.023 0.97,9.952 0.971,9.953 0.971,9.953 0.971,9.953 0.419,4.291 h 1.323 1.323 0.662 0.662 0.661 0.662 1.323"
         id="path1"
         style="fill:#000000;stroke-linecap:square;stroke:#000000;stroke-linejoin:miter" />
      <path
         fill="none"
         stroke-width="3"
         stroke-linecap="butt"
         stroke-opacity="1"
         stroke="#000000"
         stroke-linejoin="round"
         d="m 12.493,59.439 1.243,0.452 4.317,-9.02 4.317,-9.02 4.316,-9.021 4.317,-9.02 1.861,-3.889 -1.062,-2.539 -2.722,-0.991 1.865,-5.195 -0.16,-3.016 -1.79,-1.816 -2.54,0.24 -2.06,2.208 -1.911,5.178 -2.722,-0.99 -2.446,1.262 -2.492,9.684 -2.491,9.685 -2.492,9.684 -2.492,9.685 -1.074,4.176 1.243,0.452 1.244,0.453 0.622,0.226 0.621,0.226 0.622,0.227 0.622,0.226 1.244,0.453"
         id="path2"
         style="fill:#000000;stroke-linecap:square;stroke:#000000;stroke-linejoin:miter" />
      <path
         fill="none"
         stroke-width="3"
         stroke-linecap="butt"
         stroke-opacity="1"
         stroke="#000000"
         stroke-linejoin="round"
         d="m 93.889,37.299 0.58,-1.189 -8.52,-5.236 -8.52,-5.236 -8.519,-5.236 -8.52,-5.236 -3.674,-2.257 -2.636,0.791 -1.269,2.603 -4.972,-2.397 -3.016,-0.157 -1.994,1.591 -0.026,2.551 1.98,2.279 4.951,2.442 -1.27,2.604 0.999,2.564 9.371,3.49 9.371,3.491 9.371,3.49 9.371,3.491 4.041,1.505 0.58,-1.19 0.58,-1.189 0.29,-0.595 0.29,-0.595 0.29,-0.594 0.29,-0.595 0.581,-1.19"
         id="path3"
         style="fill:#000000;stroke-linecap:square;stroke:#000000;stroke-linejoin:miter" />
    </g>
  </g>
</svg>
