<?xml version="1.0" encoding="UTF-8" standalone="no"?>
<svg
   version="1.1"
   width="100"
   height="100"
   id="svg2"
   sodipodi:docname="battle_filled_black.svg"
   inkscape:version="1.4 (e7c3feb, 2024-10-09)"
   xmlns:inkscape="http://www.inkscape.org/namespaces/inkscape"
   xmlns:sodipodi="http://sodipodi.sourceforge.net/DTD/sodipodi-0.dtd"
   xmlns="http://www.w3.org/2000/svg"
   xmlns:svg="http://www.w3.org/2000/svg">
  <defs
     id="defs2" />
  <sodipodi:namedview
     id="namedview2"
     pagecolor="#ffffff"
     bordercolor="#000000"
     borderopacity="0.25"
     inkscape:showpageshadow="2"
     inkscape:pageopacity="0.0"
     inkscape:pagecheckerboard="0"
     inkscape:deskcolor="#d1d1d1"
     showgrid="false"
     inkscape:zoom="3.5575118"
     inkscape:cx="74.91191"
     inkscape:cy="73.506433"
     inkscape:window-width="1920"
     inkscape:window-height="1011"
     inkscape:window-x="0"
     inkscape:window-y="0"
     inkscape:window-maximized="1"
     inkscape:current-layer="strokes" />
  <g
     id="ViewLayer_LineSet"
     inkscape:label="ViewLayer_LineSet">
    <g
       inkscape:groupmode="layer"
       id="strokes"
       inkscape:label="strokes">
      <g
         id="g3-6-8"
         transform="matrix(0.69303298,0.693033,-0.693033,0.69303298,-7.0081,-68.641985)">
        <path
           id="path1-3-2-26-7"
           style="fill:#000000;stroke-width:2.831;stroke-linecap:square;stroke-linejoin:miter;stroke-dasharray:none"
           d="m 126.73345,-6.7766797 6.95823,7.02713399 c -0.0557,22.70724671 -0.11199,51.41324071 -0.16799,74.12047871 3.49354,0.01274 7.02841,0.02321 10.52198,0.02773 l -0.013,9.012399 -14.44418,-0.03151 c -0.0142,4.611825 -0.0265,11.419736 -0.0387,16.031566 -2.03383,-0.007 -4.06766,-0.01193 -6.1015,-0.017 0.0104,-4.611836 0.0233,-11.419752 0.0387,-16.031572 -4.17152,-0.01528 -10.27081,-0.0233 -14.44234,-0.02962 l 0.013,-9.014242 c 3.49356,0.01038 7.02843,0.01519 10.52198,0.02774 L 119.7479,0.22411029 Z"
           sodipodi:nodetypes="cccccccccccccc" />
        <ellipse
           style="fill:#000000;stroke:#000000;stroke-width:3;stroke-linecap:square;stroke-linejoin:miter"
           id="path3-1-9"
           cx="126.72563"
           cy="102.91673"
           rx="4.2164302"
           ry="4.0056086" />
      </g>
      <g
         id="g3-6-8-2"
         transform="matrix(-0.69303298,0.693033,0.693033,0.69303298,107.0081,-68.641985)">
        <path
           id="path1-3-2-26-7-0"
           style="fill:#000000;stroke-width:2.831;stroke-linecap:square;stroke-linejoin:miter;stroke-dasharray:none"
           d="m 126.73345,-6.7766797 6.95823,7.02713399 c -0.0557,22.70724671 -0.11199,51.41324071 -0.16799,74.12047871 3.49354,0.01274 7.02841,0.02321 10.52198,0.02773 l -0.013,9.012399 -14.44418,-0.03151 c -0.0142,4.611825 -0.0265,11.419736 -0.0387,16.031566 -2.03383,-0.007 -4.06766,-0.01193 -6.1015,-0.017 0.0104,-4.611836 0.0233,-11.419752 0.0387,-16.031572 -4.17152,-0.01528 -10.27081,-0.0233 -14.44234,-0.02962 l 0.013,-9.014242 c 3.49356,0.01038 7.02843,0.01519 10.52198,0.02774 L 119.7479,0.22411029 Z"
           sodipodi:nodetypes="cccccccccccccc" />
        <ellipse
           style="fill:#000000;stroke:#000000;stroke-width:3;stroke-linecap:square;stroke-linejoin:miter"
           id="path3-1-9-2"
           cx="126.72563"
           cy="102.91673"
           rx="4.2164302"
           ry="4.0056086" />
      </g>
    </g>
  </g>
</svg>
